{"title":"Madagascar 3 Europe's Most Wanted (2012) 1080p [1920x1080p] BluR","uid":9777386,"size":2487530694,"categoryP":"video","categoryS":"hd___movies","magnet":"?xt=urn:btih:65b38293665b51f257c75268ee2b49cf14cfbb13&amp;dn=Madagascar+3+Europe%27s+Most+Wanted+%282012%29+1080p+%5B1920x1080p%5D+BluR&amp;tr=udp%3A%2F%2Ftracker.openbittorrent.com%3A80&amp;tr=udp%3A%2F%2Fopen.demonii.com%3A1337&amp;tr=udp%3A%2F%2Ftracker.coppersurfer.tk%3A6969&amp;tr=udp%3A%2F%2Fexodus.desync.com%3A6969","seeders":8,"leechers":5,"uploader":"SaNRiM","files":-1,"time":1395053809,"description":"Storyline\n\nAlex, Marty, Gloria and Melman are still trying to get back to the Big Apple and their beloved Central Park zoo, but first they need to find the penguins. When they travel to Monte Carlo, they attract the attention of Animal Control after gate crashing a party and are joined by the penguins, King Julian and Co., and the monkeys. How do a lion, zebra, hippo, giraffe, four penguins, two monkeys, three lemurs travel through Europe without attracting attention and get back to New York? They join a traveling circus. Their attempts to get back to New York are consistently hampered by the Captain of Animal Control who wants to make Alex part of her collection. Once they make it back to New York Marty, Alex, Gloria and Melman realize that they want to be part of the traveling circus.\n\n\n\nTorrent Info\n\nGeneral\n\nUnique ID : 171010662157095745340843908234320641258 (0x80A7749C06ED53E0842040DF19257CEA)\nComplete name : Madagascar 3 Europe's Most Wanted (2012) 1080p {Dual Audio} ~SaNRiM~.mkv\nFormat : Matroska\nFormat version : Version 4 / Version 2\nFile size : 2.30 GiB\nDuration : 1h 33mn\nOverall bit rate : 3 521 Kbps\nEncoded date : UTC 2014-03-11 21:22:03\nWriting library : libebml v1.3.0 + libmatroska v1.4.1\n\n\nVideo\n\nID : 1\nFormat : AVC\nFormat/Info : Advanced Video Codec\nFormat profile : &lt;a class=&quot;__cf_email__&quot; href=&quot;/cdn-cgi/l/email-protection&quot; data-cfemail=&quot;5a12333d321a166e746a&quot;&gt;[email&amp;#160;protected]&lt;/a&gt;&lt;script cf-hash='f9e31' type=&quot;text/javascript&quot;&gt;\n/* &lt;![CDATA[ */!function(){try{var t=&quot;currentScript&quot;in document?document.currentScript:function(){for(var t=document.getElementsByTagName(&quot;script&quot;),e=t.length;e--;)if(t[e].getAttribute(&quot;cf-hash&quot;))return t[e]}();if(t&amp;&amp;t.previousSibling){var e,r,n,i,c=t.previousSibling,a=c.getAttribute(&quot;data-cfemail&quot;);if(a){for(e=&quot;&quot;,r=parseInt(a.substr(0,2),16),n=2;a.length-n;n+=2)i=parseInt(a.substr(n,2),16)^r,e+=String.fromCharCode(i);e=document.createTextNode(e),c.parentNode.replaceChild(e,c)}}}catch(u){}}();/* ]]&gt; */&lt;/script&gt;\nFormat settings, CABAC : Yes\nFormat settings, ReFrames : 4 frames\nCodec ID : V_MPEG4/ISO/AVC\nDuration : 1h 33mn\nBit rate : 2 228 Kbps\nWidth : 1 920 pixels\nHeight : 1 080 pixels\nDisplay aspect ratio : 16:9\nFrame rate mode : Constant\nFrame rate : 23.976 fps\nColor space : YUV\nChroma subsampling : 4:2:0\nBit depth : 8 bits\nScan type : Progressive\nBits/(Pixel*Frame) : 0.045\nStream size : 1.42 GiB (62%)\nTitle : ~SaNRiM~\nWriting library : x264 core 128 r2216 198a7ea\nLanguage : English\nDefault : Yes\nForced : No\n\n\nAudio #1\n\nID : 2\nFormat : AC-3\nFormat/Info : Audio Coding 3\nMode extension : CM (complete main)\nFormat settings, Endianness : Big\nCodec ID : A_AC3\nDuration : 1h 33mn\nBit rate mode : Constant\nBit rate : 640 Kbps\nChannel(s) : 6 channels\nChannel positions : Front: L C R, Side: L R, LFE\nSampling rate : 48.0 KHz\nBit depth : 16 bits\nCompression mode : Lossy\nStream size : 428 MiB (18%)\nTitle : ~SaNRiM~\nLanguage : Hindi\nDefault : No\nForced : No\n\n\nAudio #2\n\nID : 3\nFormat : AC-3\nFormat/Info : Audio Coding 3\nMode extension : CM (complete main)\nFormat settings, Endianness : Big\nCodec ID : A_AC3\nDuration : 1h 33mn\nBit rate mode : Constant\nBit rate : 640 Kbps\nChannel(s) : 6 channels\nChannel positions : Front: L C R, Side: L R, LFE\nSampling rate : 48.0 KHz\nBit depth : 16 bits\nCompression mode : Lossy\nStream size : 428 MiB (18%)\nTitle : ~SaNRiM~\nLanguage : English\nDefault : No\nForced : No\n\n\nText #1\n\nID : 4\nFormat : PGS\nMuxing mode : zlib\nCodec ID : S_HDMV/PGS\nCodec ID/Info : The same subtitle format used on BDs/HD-DVDs\nTitle : ~SaNRiM~\nLanguage : Hindi\nDefault : No\nForced : No\n\n\nText #2\n\nID : 5\nFormat : PGS\nMuxing mode : zlib\nCodec ID : S_HDMV/PGS\nCodec ID/Info : The same subtitle format used on BDs/HD-DVDs\nTitle : ~SaNRiM~\nLanguage : English\nDefault : No\nForced : No\n\n\n\nScreens\n &lt;a href=&quot;\nhttp://someimage.com/2fJurgi&quot; rel=&quot;nofollow&quot; target=&quot;_NEW&quot;&gt;\nhttp://someimage.com/2fJurgi&lt;/a&gt; &lt;a href=&quot;\nhttp://someimage.com/eoUa6kW&quot; rel=&quot;nofollow&quot; target=&quot;_NEW&quot;&gt;\nhttp://someimage.com/eoUa6kW&lt;/a&gt; &lt;a href=&quot;\nhttp://someimage.com/0boXs0l&quot; rel=&quot;nofollow&quot; target=&quot;_NEW&quot;&gt;\nhttp://someimage.com/0boXs0l&lt;/a&gt; &lt;a href=&quot;\nhttp://someimage.com/v5T5hIs&quot; rel=&quot;nofollow&quot; target=&quot;_NEW&quot;&gt;\nhttp://someimage.com/v5T5hIs&lt;/a&gt; &lt;a href=&quot;\nhttp://someimage.com/NSfTa9X&quot; rel=&quot;nofollow&quot; target=&quot;_NEW&quot;&gt;\nhttp://someimage.com/NSfTa9X&lt;/a&gt; &lt;a href=&quot;\nhttp://someimage.com/Wps2X1L&quot; rel=&quot;nofollow&quot; target=&quot;_NEW&quot;&gt;\nhttp://someimage.com/Wps2X1L&lt;/a&gt; &lt;a href=&quot;\nhttp://someimage.com/jLigGSy&quot; rel=&quot;nofollow&quot; target=&quot;_NEW&quot;&gt;\nhttp://someimage.com/jLigGSy&lt;/a&gt; &lt;a href=&quot;\nhttp://someimage.com/WzsJTjr&quot; rel=&quot;nofollow&quot; target=&quot;_NEW&quot;&gt;\nhttp://someimage.com/WzsJTjr&lt;/a&gt; &lt;a href=&quot;\nhttp://someimage.com/8cd8ctv&quot; rel=&quot;nofollow&quot; target=&quot;_NEW&quot;&gt;\nhttp://someimage.com/8cd8ctv&lt;/a&gt; &lt;a href=&quot;\nhttp://someimage.com/qUcJtEO&quot; rel=&quot;nofollow&quot; target=&quot;_NEW&quot;&gt;\nhttp://someimage.com/qUcJtEO&lt;/a&gt; &lt;a href=&quot;\nhttp://someimage.com/McfGuxX&quot; rel=&quot;nofollow&quot; target=&quot;_NEW&quot;&gt;\nhttp://someimage.com/McfGuxX&lt;/a&gt; &lt;a href=&quot;\nhttp://someimage.com/PKxcZWY&quot; rel=&quot;nofollow&quot; target=&quot;_NEW&quot;&gt;\nhttp://someimage.com/PKxcZWY&lt;/a&gt; &lt;a href=&quot;\nhttp://someimage.com/wZvrbp8&quot; rel=&quot;nofollow&quot; target=&quot;_NEW&quot;&gt;\nhttp://someimage.com/wZvrbp8&lt;/a&gt; &lt;a href=&quot;\nhttp://someimage.com/9KYMYLp&quot; rel=&quot;nofollow&quot; target=&quot;_NEW&quot;&gt;\nhttp://someimage.com/9KYMYLp&lt;/a&gt; &lt;a href=&quot;\nhttp://someimage.com/OEGfcrT&quot; rel=&quot;nofollow&quot; target=&quot;_NEW&quot;&gt;\nhttp://someimage.com/OEGfcrT&lt;/a&gt; &lt;a href=&quot;\nhttp://someimage.com/jg0rKxX&quot; rel=&quot;nofollow&quot; target=&quot;_NEW&quot;&gt;\nhttp://someimage.com/jg0rKxX&lt;/a&gt; &lt;a href=&quot;\nhttp://someimage.com/uUmzM6r&quot; rel=&quot;nofollow&quot; target=&quot;_NEW&quot;&gt;\nhttp://someimage.com/uUmzM6r&lt;/a&gt; &lt;a href=&quot;\nhttp://someimage.com/3qyCD4H&quot; rel=&quot;nofollow&quot; target=&quot;_NEW&quot;&gt;\nhttp://someimage.com/3qyCD4H&lt;/a&gt; &lt;a href=&quot;\nhttp://someimage.com/4z0qUeT&quot; rel=&quot;nofollow&quot; target=&quot;_NEW&quot;&gt;\nhttp://someimage.com/4z0qUeT&lt;/a&gt; &lt;a href=&quot;\nhttp://someimage.com/X8440dS&quot; rel=&quot;nofollow&quot; target=&quot;_NEW&quot;&gt;\nhttp://someimage.com/X8440dS&lt;/a&gt;\n\n\n\n\n                   A BIG THANKS TO PHDR FOR AUDIO\n\n\n\n                  If you like my work please comment\n                          Any request? Just PM me\n                       Please seed long after download\n                         Thank you &amp; enjoy the best\n                                 ~SaNRiM~","torrent":{"xt":"urn:btih:65b38293665b51f257c75268ee2b49cf14cfbb13","amp;dn":"Madagascar+3+Europe%27s+Most+Wanted+%282012%29+1080p+%5B1920x1080p%5D+BluR","amp;tr":["udp%3A%2F%2Ftracker.openbittorrent.com%3A80","udp%3A%2F%2Fopen.demonii.com%3A1337","udp%3A%2F%2Ftracker.coppersurfer.tk%3A6969","udp%3A%2F%2Fexodus.desync.com%3A6969"],"infoHash":"65b38293665b51f257c75268ee2b49cf14cfbb13","infoHashBuffer":{"type":"Buffer","data":[101,179,130,147,102,91,81,242,87,199,82,104,238,43,73,207,20,207,187,19]},"announce":[],"urlList":[]}}